HIERARCHY
ROOT Hips
{
	OFFSET 0.000000 71.427986 0.000000
	CHANNELS 6 Xposition Yposition Zposition Xrotation Yrotation Zrotation
	JOINT Pelvis
	{
		OFFSET 0.000000 0.000000 0.000000
		CHANNELS 3 Xrotation Yrotation Zrotation
		JOINT LeftUpLeg
		{
			OFFSET 6.797100 -2.508499 -1.318700
			CHANNELS 3 Xrotation Yrotation Zrotation
			JOINT LeftLeg
			{
				OFFSET 0.069008 -29.241863 0.690200
				CHANNELS 3 Xrotation Yrotation Zrotation
				JOINT LeftFoot
				{
					OFFSET -0.069008 -29.568123 -0.266800
					CHANNELS 3 Xrotation Yrotation Zrotation
					JOINT LeftToeBase
					{
						OFFSET 3.145500 -8.631000 16.059900
						CHANNELS 3 Xrotation Yrotation Zrotation
						End Site
						{
							OFFSET 0.000000 18.501587 0.000000
						}
					}
				}
			}
			JOINT Left_ShortSleeve
			{
				OFFSET 0.265923 -10.480953 1.153800
				CHANNELS 3 Xrotation Yrotation Zrotation
				End Site
				{
					OFFSET 1.725763 19.823879 0.000000
				}
			}
		}
		JOINT RightUpLeg
		{
			OFFSET -6.797100 -2.508499 -1.318700
			CHANNELS 3 Xrotation Yrotation Zrotation
			JOINT RightLeg
			{
				OFFSET -0.082453 -29.241932 0.688000
				CHANNELS 3 Xrotation Yrotation Zrotation
				JOINT RightFoot
				{
					OFFSET 0.082453 -29.568058 -0.264600
					CHANNELS 3 Xrotation Yrotation Zrotation
					JOINT RightToeBase
					{
						OFFSET -3.115300 -8.682800 16.113400
						CHANNELS 3 Xrotation Yrotation Zrotation
						End Site
						{
							OFFSET 0.000000 18.567114 0.000000
						}
					}
				}
			}
			JOINT Right_ShortSleeve
			{
				OFFSET -0.265923 -10.480953 1.153800
				CHANNELS 3 Xrotation Yrotation Zrotation
				End Site
				{
					OFFSET -1.725766 19.823910 0.000000
				}
			}
		}
	}
	JOINT Spine
	{
		OFFSET 0.000000 13.368103 0.470500
		CHANNELS 3 Xrotation Yrotation Zrotation
		JOINT Spine1
		{
			OFFSET 0.147000 13.837402 0.538800
			CHANNELS 3 Xrotation Yrotation Zrotation
			JOINT Spine2
			{
				OFFSET 0.168000 16.242897 -1.435500
				CHANNELS 3 Xrotation Yrotation Zrotation
				JOINT Neck
				{
					OFFSET 0.217200 18.631500 -1.679100
					CHANNELS 3 Xrotation Yrotation Zrotation
					JOINT Head
					{
						OFFSET 0.000000 6.599396 1.385900
						CHANNELS 3 Xrotation Yrotation Zrotation
						JOINT Hat
						{
							OFFSET -0.532200 27.220596 -10.096100
							CHANNELS 3 Xrotation Yrotation Zrotation
							End Site
							{
								OFFSET 0.000000 22.029861 0.000000
							}
						}
						JOINT HairD
						{
							OFFSET -10.777400 17.437393 -1.325900
							CHANNELS 3 Xrotation Yrotation Zrotation
							JOINT HairD1
							{
								OFFSET -3.290299 -11.051193 1.062200
								CHANNELS 3 Xrotation Yrotation Zrotation
								End Site
								{
									OFFSET 0.000000 11.579437 0.000000
								}
							}
						}
						JOINT HairB
						{
							OFFSET -10.777400 17.437393 1.467900
							CHANNELS 3 Xrotation Yrotation Zrotation
							JOINT HairB1
							{
								OFFSET -1.561200 -12.956299 3.590200
								CHANNELS 3 Xrotation Yrotation Zrotation
								End Site
								{
									OFFSET 0.000000 13.534866 0.000000
								}
							}
						}
						JOINT HairA
						{
							OFFSET 9.713100 17.437393 1.467900
							CHANNELS 3 Xrotation Yrotation Zrotation
							JOINT HairA1
							{
								OFFSET 1.561200 -12.956299 3.590200
								CHANNELS 3 Xrotation Yrotation Zrotation
								End Site
								{
									OFFSET 0.000000 13.534866 0.000000
								}
							}
						}
						JOINT HairC
						{
							OFFSET 9.713100 17.437393 -1.325900
							CHANNELS 3 Xrotation Yrotation Zrotation
							JOINT HairC1
							{
								OFFSET 3.290300 -11.051193 1.062200
								CHANNELS 3 Xrotation Yrotation Zrotation
								End Site
								{
									OFFSET 0.000000 11.579437 0.000000
								}
							}
						}
					}
				}
				JOINT LeftShoulder
				{
					OFFSET 5.101800 15.108002 -2.763700
					CHANNELS 3 Xrotation Yrotation Zrotation
					JOINT LeftArm
					{
						OFFSET 9.825497 2.506317 -1.597400
						CHANNELS 3 Xrotation Yrotation Zrotation
						JOINT LeftForeArm
						{
							OFFSET 21.966244 0.000000 0.000000
							CHANNELS 3 Xrotation Yrotation Zrotation
							JOINT LeftHand
							{
								OFFSET 33.879036 0.000000 0.000000
								CHANNELS 3 Xrotation Yrotation Zrotation
								JOINT LeftHandThumb1
								{
									OFFSET 6.715286 -2.359680 3.363841
									CHANNELS 3 Xrotation Yrotation Zrotation
									JOINT LeftHandThumb2
									{
										OFFSET 2.507072 -1.447464 1.447461
										CHANNELS 3 Xrotation Yrotation Zrotation
										JOINT LeftHandThumb3
										{
											OFFSET 2.898338 -1.673355 1.673357
											CHANNELS 3 Xrotation Yrotation Zrotation
											End Site
											{
												OFFSET -0.295959 3.727692 -0.131651
											}
										}
									}
								}
								JOINT LeftHandIndex1
								{
									OFFSET 14.190811 -0.254547 3.840278
									CHANNELS 3 Xrotation Yrotation Zrotation
									JOINT LeftHandIndex2
									{
										OFFSET 3.551727 0.000000 -0.000000
										CHANNELS 3 Xrotation Yrotation Zrotation
										JOINT LeftHandIndex3
										{
											OFFSET 2.894196 0.000000 0.000000
											CHANNELS 3 Xrotation Yrotation Zrotation
											End Site
											{
												OFFSET -1.000603 2.690872 0.366626
											}
										}
									}
								}
								JOINT LeftHandMiddle1
								{
									OFFSET 13.776489 0.000000 0.000000
									CHANNELS 3 Xrotation Yrotation Zrotation
									JOINT LeftHandMiddle2
									{
										OFFSET 3.438232 0.000000 0.000000
										CHANNELS 3 Xrotation Yrotation Zrotation
										JOINT LeftHandMiddle3
										{
											OFFSET 3.691551 0.000000 0.000000
											CHANNELS 3 Xrotation Yrotation Zrotation
											End Site
											{
												OFFSET -1.082298 3.499527 0.457670
											}
										}
									}
								}
								JOINT LeftHandRing1
								{
									OFFSET 13.966164 -0.268127 -3.067488
									CHANNELS 3 Xrotation Yrotation Zrotation
									JOINT LeftHandRing2
									{
										OFFSET 3.162567 0.000000 0.000000
										CHANNELS 3 Xrotation Yrotation Zrotation
										JOINT LeftHandRing3
										{
											OFFSET 3.324348 0.000000 0.000000
											CHANNELS 3 Xrotation Yrotation Zrotation
											End Site
											{
												OFFSET -0.861900 3.184998 0.405154
											}
										}
									}
								}
								JOINT LeftHandPinky1
								{
									OFFSET 13.131393 -0.168503 -5.746925
									CHANNELS 3 Xrotation Yrotation Zrotation
									JOINT LeftHandPinky2
									{
										OFFSET 2.849182 0.000000 0.000000
										CHANNELS 3 Xrotation Yrotation Zrotation
										JOINT LeftHandPinky3
										{
											OFFSET 2.805038 0.000000 0.000000
											CHANNELS 3 Xrotation Yrotation Zrotation
											End Site
											{
												OFFSET -0.882500 2.642609 0.325652
											}
										}
									}
								}
							}
							JOINT Left_Sleeve
							{
								OFFSET 6.592125 -0.646545 0.805568
								CHANNELS 3 Xrotation Yrotation Zrotation
								End Site
								{
									OFFSET -0.000179 20.275787 -0.000000
								}
							}
						}
					}
				}
				JOINT RightShoulder
				{
					OFFSET -5.731700 15.108002 -2.763700
					CHANNELS 3 Xrotation Yrotation Zrotation
					JOINT RightArm
					{
						OFFSET -9.825497 2.506317 -1.597400
						CHANNELS 3 Xrotation Yrotation Zrotation
						JOINT RightForeArm
						{
							OFFSET -21.966242 0.000000 0.000000
							CHANNELS 3 Xrotation Yrotation Zrotation
							JOINT RightHand
							{
								OFFSET -33.879032 0.000000 0.000000
								CHANNELS 3 Xrotation Yrotation Zrotation
								JOINT RightHandThumb1
								{
									OFFSET -6.715286 -2.359680 3.363841
									CHANNELS 3 Xrotation Yrotation Zrotation
									JOINT RightHandThumb2
									{
										OFFSET -2.507072 -1.447464 1.447461
										CHANNELS 3 Xrotation Yrotation Zrotation
										JOINT RightHandThumb3
										{
											OFFSET -2.898338 -1.673355 1.673357
											CHANNELS 3 Xrotation Yrotation Zrotation
											End Site
											{
												OFFSET 0.295959 3.727692 -0.131651
											}
										}
									}
								}
								JOINT RightHandIndex1
								{
									OFFSET -14.190811 -0.254547 3.840278
									CHANNELS 3 Xrotation Yrotation Zrotation
									JOINT RightHandIndex2
									{
										OFFSET -3.551727 0.000000 -0.000000
										CHANNELS 3 Xrotation Yrotation Zrotation
										JOINT RightHandIndex3
										{
											OFFSET -2.894196 0.000000 0.000000
											CHANNELS 3 Xrotation Yrotation Zrotation
											End Site
											{
												OFFSET 1.000603 2.690872 0.366626
											}
										}
									}
								}
								JOINT RightHandMiddle1
								{
									OFFSET -13.776489 0.000000 0.000000
									CHANNELS 3 Xrotation Yrotation Zrotation
									JOINT RightHandMiddle2
									{
										OFFSET -3.438232 0.000000 0.000000
										CHANNELS 3 Xrotation Yrotation Zrotation
										JOINT RightHandMiddle3
										{
											OFFSET -3.691551 0.000000 0.000000
											CHANNELS 3 Xrotation Yrotation Zrotation
											End Site
											{
												OFFSET 1.082298 3.499527 0.457670
											}
										}
									}
								}
								JOINT RightHandRing1
								{
									OFFSET -13.966164 -0.268127 -3.067488
									CHANNELS 3 Xrotation Yrotation Zrotation
									JOINT RightHandRing2
									{
										OFFSET -3.162567 0.000000 0.000000
										CHANNELS 3 Xrotation Yrotation Zrotation
										JOINT RightHandRing3
										{
											OFFSET -3.324348 0.000000 0.000000
											CHANNELS 3 Xrotation Yrotation Zrotation
											End Site
											{
												OFFSET 0.861900 3.184998 0.405154
											}
										}
									}
								}
								JOINT RightHandPinky1
								{
									OFFSET -13.131393 -0.168503 -5.746925
									CHANNELS 3 Xrotation Yrotation Zrotation
									JOINT RightHandPinky2
									{
										OFFSET -2.849182 0.000000 0.000000
										CHANNELS 3 Xrotation Yrotation Zrotation
										JOINT RightHandPinky3
										{
											OFFSET -2.805038 0.000000 0.000000
											CHANNELS 3 Xrotation Yrotation Zrotation
											End Site
											{
												OFFSET 0.882500 2.642609 0.325652
											}
										}
									}
								}
							}
							JOINT Right_Sleeve
							{
								OFFSET -6.592125 -0.646545 0.805568
								CHANNELS 3 Xrotation Yrotation Zrotation
								End Site
								{
									OFFSET 0.000179 20.275787 -0.000000
								}
							}
						}
					}
				}
				JOINT Bind_Right_JacketString
				{
					OFFSET -3.534800 11.969597 7.200700
					CHANNELS 3 Xrotation Yrotation Zrotation
					JOINT Bind_Right_JacketString1
					{
						OFFSET -0.319900 -6.102600 2.794100
						CHANNELS 3 Xrotation Yrotation Zrotation
						End Site
						{
							OFFSET 0.000000 6.719452 0.000000
						}
					}
				}
				JOINT Bind_Left_JacketString
				{
					OFFSET 2.904800 11.969597 7.200700
					CHANNELS 3 Xrotation Yrotation Zrotation
					JOINT Bind_Left_JacketString1
					{
						OFFSET 0.364800 -5.904503 3.186800
						CHANNELS 3 Xrotation Yrotation Zrotation
						End Site
						{
							OFFSET 0.000000 6.719513 0.000000
						}
					}
				}
				JOINT HairE
				{
					OFFSET 5.915200 17.612701 -11.592200
					CHANNELS 3 Xrotation Yrotation Zrotation
					JOINT HairE1
					{
						OFFSET 0.289200 -7.171898 -1.284500
						CHANNELS 3 Xrotation Yrotation Zrotation
						End Site
						{
							OFFSET 0.000000 7.291756 0.000000
						}
					}
				}
				JOINT HairF
				{
					OFFSET -0.864800 17.612701 -11.592200
					CHANNELS 3 Xrotation Yrotation Zrotation
					JOINT HairF1
					{
						OFFSET 0.000000 -14.087097 -2.127501
						CHANNELS 3 Xrotation Yrotation Zrotation
						End Site
						{
							OFFSET 0.000000 14.246841 0.000000
						}
					}
				}
				JOINT HairG
				{
					OFFSET -8.087700 17.612701 -11.592200
					CHANNELS 3 Xrotation Yrotation Zrotation
					JOINT HairG1
					{
						OFFSET -0.293600 -6.081398 -0.910100
						CHANNELS 3 Xrotation Yrotation Zrotation
						End Site
						{
							OFFSET 0.000000 6.156120 0.000000
						}
					}
				}
			}
		}
	}
	JOINT Pouch
	{
		OFFSET 0.000000 4.394501 10.847300
		CHANNELS 3 Xrotation Yrotation Zrotation
		End Site
		{
			OFFSET 0.000000 21.880577 0.000000
		}
	}
	JOINT Bag
	{
		OFFSET -13.229000 4.813004 -0.593300
		CHANNELS 3 Xrotation Yrotation Zrotation
		End Site
		{
			OFFSET 0.000000 21.880577 0.000000
		}
	}
	JOINT OccupyGuyFacialAnim_Joint
	{
		OFFSET 1.000000 -70.206398 -1.655000
		CHANNELS 3 Xrotation Yrotation Zrotation
		End Site
		{
			OFFSET 0.000000 21.880577 0.000000
		}
	}
}
MOTION
Frames: 5
Frame Time: 0.016667
-8.861604 55.321526 -2.278646 -2.904443 4.974744 0.408412 0.000000 0.000000 -0.000000 -58.216632 -8.282520 6.462489 63.108967 -21.423122 -9.516016 -4.781809 -4.271421 0.245772 0.000000 0.000000 -0.000000 -0.000001 0.000000 0.000000 -13.343093 -5.442552 -1.168833 85.598738 -14.932493 -7.253135 -45.396279 -3.175288 18.850654 0.000000 -0.000000 0.000000 0.000001 0.000000 -0.000000 8.955915 -0.062995 -1.736951 3.966863 0.230935 -3.978306 3.989347 0.231038 -3.977842 5.038292 -8.338513 11.033144 -0.460165 -3.911048 -10.648854 0.000001 -0.000001 -0.000001 0.000001 -0.000001 -0.000001 0.000001 -0.000001 -0.000001 0.000001 -0.000001 0.000000 -0.000001 -0.000001 -0.000001 0.000001 -0.000001 0.000000 -0.000001 -0.000001 -0.000001 0.000001 -0.000001 -0.000001 0.000001 -0.000001 -0.000001 -8.173990 -31.527982 -8.252493 -31.588553 -14.766825 -24.997731 -124.594521 -59.639682 -127.258691 -8.365606 -5.660522 17.684051 15.614784 18.236723 11.488237 11.421640 30.331326 -11.339201 -0.000003 0.000001 0.000000 19.961281 12.194231 -48.814406 -0.280105 1.062263 -128.835195 0.000002 0.000001 0.000002 7.703392 10.532988 -62.910885 0.990457 -0.061692 -121.377325 0.000001 0.000001 0.000001 0.948589 15.112174 -68.414310 0.879490 -0.210879 -117.521205 -0.000001 0.000002 -0.000002 -16.314207 19.696888 -71.347664 0.695860 -0.323401 -142.818450 -0.000001 -0.000000 0.000003 0.000001 0.000000 -0.000000 -8.947963 32.923253 10.353830 -34.168417 8.238666 31.408864 50.102825 118.312346 -44.867523 -7.430150 8.835773 -25.387560 17.261058 -16.812999 -12.690458 10.409554 -24.931131 14.714519 0.000001 -0.000001 -0.000000 19.952629 -0.387302 46.095926 -0.057047 -1.141798 137.151551 -0.000003 -0.000007 -0.000001 6.186505 -2.518744 61.008008 0.941170 0.201320 126.871406 0.000002 0.000005 -0.000000 0.195734 -7.578778 62.006206 0.865283 0.303832 119.921483 -0.000001 -0.000001 0.000001 -17.990698 -11.912578 65.482656 0.676373 0.402112 146.296095 -0.000003 -0.000002 -0.000003 0.000002 -0.000001 0.000002 0.000001 0.000000 0.000000 0.000001 -0.000000 -0.000001 0.000001 0.000000 0.000000 0.000001 0.000000 0.000000 0.000001 0.000000 0.000000 0.000001 -0.000000 -0.000001 0.000001 0.000000 0.000000 0.000001 0.000000 0.000000 0.000001 0.000000 0.000000 0.000001 -0.000000 -0.000001 0.000000 0.000000 -0.000000 0.000000 0.000000 -0.000000 0.000000 0.000000 -0.000000 
-9.033866 56.581482 -2.114694 -0.966274 6.557087 0.642575 0.000000 0.000001 0.000000 -57.577286 -8.327856 4.791077 58.998874 -21.114712 -8.655287 -3.528234 -3.885417 -0.716571 -0.000000 0.000001 -0.000000 -0.000001 0.000001 -0.000001 -13.186543 -6.255233 -0.682159 81.017067 -15.200784 -7.489058 -44.445462 -2.572532 17.857535 0.000000 0.000000 0.000000 -0.000000 0.000000 -0.000000 8.259919 -0.208949 -1.903250 2.568482 -0.078458 -4.312727 2.590948 -0.078385 -4.312243 0.090886 -9.587591 9.553649 -0.716503 -4.945428 -10.676961 0.000001 -0.000000 0.000000 0.000001 -0.000000 0.000000 0.000001 -0.000000 0.000001 0.000001 -0.000000 0.000000 0.000001 0.000000 0.000000 0.000001 -0.000000 0.000000 0.000001 0.000000 0.000000 0.000001 -0.000000 0.000000 0.000001 -0.000000 0.000000 -8.485029 -28.820475 -9.252590 -25.663305 -15.710613 -18.176242 -134.370298 -56.428943 -136.822595 -8.621286 -3.463228 20.162344 14.821188 17.379406 11.215562 10.269890 28.734855 -10.694123 0.000001 -0.000001 0.000001 16.649746 9.371666 -44.593929 -0.351069 0.993991 -120.047350 0.000003 -0.000003 -0.000001 6.076238 7.776710 -58.086832 1.006488 0.042502 -113.465671 0.000001 0.000001 0.000001 0.133082 12.601274 -64.387203 0.867701 -0.128594 -110.199782 -0.000002 0.000003 -0.000003 -15.415761 16.999656 -68.075000 0.715054 -0.239996 -133.253220 -0.000000 -0.000002 0.000003 -0.000000 0.000002 0.000001 -8.020590 29.104095 7.655827 -24.846579 11.304222 29.134561 32.701993 121.145030 -30.427437 -8.088094 5.625848 -27.490550 15.061779 -14.238134 -12.274938 10.652978 -26.601743 13.514532 -0.000002 0.000002 0.000003 19.237417 0.147132 44.669967 -0.156391 -1.095406 130.776006 -0.000001 0.000002 -0.000003 5.981516 -1.717687 59.670561 0.967280 0.104965 121.723670 -0.000000 -0.000000 0.000001 0.026720 -7.126127 61.895338 0.865378 0.227832 115.797634 -0.000002 -0.000002 -0.000001 -16.993724 -12.001681 65.678587 0.697953 0.337670 141.340055 0.000002 0.000001 0.000002 -0.000002 0.000001 -0.000003 -0.000000 -0.000000 0.000000 -0.000000 -0.000001 -0.000001 -0.000000 -0.000000 -0.000000 -0.000000 -0.000000 -0.000000 -0.000000 -0.000000 0.000000 -0.000000 -0.000001 -0.000000 -0.000000 -0.000000 -0.000000 -0.000000 -0.000000 -0.000000 -0.000000 -0.000000 0.000000 -0.000000 -0.000001 -0.000000 0.000000 0.000001 0.000000 0.000000 0.000001 0.000000 0.000000 0.000001 0.000000 
-9.178625 57.913910 -1.908492 1.142094 8.024278 0.787878 -0.000000 0.000001 0.000000 -56.784069 -8.469167 3.077724 54.540635 -20.692765 -7.542887 -2.200836 -3.468154 -1.811740 -0.000000 0.000002 -0.000000 -0.000001 0.000000 -0.000000 -13.171981 -6.656114 -0.014343 76.218962 -15.684510 -7.814022 -42.881379 -2.051876 17.153754 0.000001 -0.000001 0.000000 -0.000002 -0.000000 -0.000000 7.512285 -0.374647 -2.050392 1.064140 -0.427326 -4.603814 1.086615 -0.427257 -4.603350 -5.694803 -10.493380 7.608345 -0.030810 -6.025160 -10.033726 0.000001 0.000000 0.000000 0.000001 0.000000 0.000000 0.000001 0.000000 0.000001 0.000001 0.000000 0.000000 0.000000 0.000000 -0.000001 0.000001 0.000000 0.000000 0.000000 0.000000 -0.000001 0.000001 0.000000 0.000000 0.000001 0.000000 0.000000 -8.676808 -25.765736 -10.075474 -18.326618 -15.006491 -10.670912 -143.139960 -54.309576 -144.303838 -8.338688 -4.453247 22.583604 13.542258 15.852905 10.916857 8.824516 26.648352 -9.992346 -0.000001 -0.000003 0.000001 13.337087 4.780041 -39.370768 -0.419298 0.892970 -109.137749 -0.000000 -0.000001 -0.000002 4.808489 3.926245 -52.134301 1.003518 0.176435 -103.588814 -0.000000 0.000003 0.000001 -0.215167 9.437530 -59.277900 0.838041 -0.028807 -100.964594 -0.000001 0.000001 0.000000 -13.745418 13.901481 -63.510507 0.719977 -0.132177 -121.198756 -0.000002 0.000002 -0.000002 0.000002 0.000000 0.000000 -7.681964 25.388563 6.444247 -12.655753 14.347772 25.486335 5.490641 121.793638 -9.171653 -8.726480 2.964766 -28.818672 11.624263 -10.440136 -11.249743 11.086808 -29.256200 11.708975 0.000002 -0.000001 0.000000 18.267580 0.888029 42.688518 -0.289894 -1.006594 121.263397 0.000001 0.000001 0.000002 5.769986 -0.545436 57.834866 0.983931 -0.035229 114.143246 0.000002 -0.000002 -0.000003 -0.199865 -6.375965 61.868837 0.850968 0.117612 109.628764 0.000002 0.000002 -0.000002 -15.494089 -12.026851 66.080858 0.715349 0.240910 133.925967 0.000000 -0.000003 0.000004 -0.000001 0.000000 -0.000001 0.000000 0.000000 -0.000000 0.000001 -0.000000 -0.000002 0.000000 0.000000 -0.000000 0.000000 0.000000 -0.000000 0.000000 0.000000 -0.000000 0.000001 -0.000000 -0.000001 0.000000 0.000000 -0.000000 0.000000 0.000000 -0.000000 0.000000 0.000000 -0.000000 0.000001 -0.000000 -0.000001 -0.000000 0.000001 0.000000 -0.000000 0.000001 0.000000 -0.000000 0.000001 0.000000 
-9.342648 60.164253 -1.418242 4.065837 9.713018 1.045262 0.000000 0.000001 -0.000000 -54.282478 -8.814924 0.681917 46.638342 -20.150559 -5.524003 0.015298 -2.361711 -3.652605 -0.000000 0.000001 -0.000000 -0.000002 0.000000 0.000000 -12.371381 -7.115896 0.766278 67.736557 -16.360554 -8.622920 -39.628710 -1.220946 16.405570 -0.000000 0.000000 -0.000000 -0.000000 -0.000000 -0.000000 6.669600 -0.544382 -2.201701 -0.631357 -0.805342 -4.887747 -0.608882 -0.805298 -4.887266 -14.077577 -10.176103 5.940330 3.281338 -6.836341 -9.520006 -0.000000 0.000000 -0.000000 -0.000000 0.000000 -0.000000 -0.000000 0.000000 0.000000 -0.000000 0.000000 -0.000000 -0.000000 -0.000000 -0.000000 -0.000000 0.000000 -0.000000 -0.000000 -0.000000 -0.000000 -0.000000 0.000000 -0.000000 -0.000000 0.000000 -0.000000 -8.036798 -21.485214 -9.500184 -14.726083 -11.896512 -5.740297 -146.957148 -62.475249 -145.446310 -7.887420 -6.581195 25.772390 11.852981 13.783173 10.547947 7.134284 24.125492 -9.310033 0.000001 -0.000000 0.000001 10.702066 -1.002480 -33.147403 -0.468605 0.763104 -96.351990 0.000000 0.000003 0.000000 4.375460 -0.409729 -44.950691 0.966624 0.328668 -91.921062 0.000000 0.000000 -0.000001 0.232669 6.121618 -52.931948 0.782603 0.078105 -89.957375 -0.000003 0.000001 -0.000003 -11.103506 10.841522 -57.415868 0.696328 -0.010310 -106.970359 0.000001 -0.000005 -0.000003 -0.000002 0.000002 0.000002 -7.296021 21.402410 5.049864 -4.773019 12.248334 21.979740 -14.800924 116.232498 8.083241 -8.901745 3.776050 -31.299584 4.230385 -1.918586 -6.476945 12.275627 -36.017900 7.415597 0.000003 0.000001 -0.000001 16.370758 2.829250 38.403797 -0.505751 -0.751315 100.224768 -0.000001 0.000001 -0.000001 5.422008 2.068104 53.814381 0.933721 -0.307692 97.586963 -0.000001 0.000000 -0.000001 -0.820420 -4.841730 62.096959 0.758519 -0.091751 96.422621 -0.000001 -0.000000 -0.000004 -12.071946 -12.450883 67.577379 0.690986 0.049058 118.162300 -0.000001 0.000001 0.000002 -0.000000 -0.000000 -0.000000 0.000001 -0.000000 0.000000 0.000002 -0.000001 -0.000001 0.000001 -0.000000 0.000000 0.000001 -0.000000 0.000000 0.000001 -0.000000 0.000000 0.000002 -0.000001 -0.000001 0.000001 -0.000000 0.000000 0.000001 -0.000000 0.000000 0.000001 -0.000000 0.000000 0.000002 -0.000001 -0.000001 0.000000 0.000001 -0.000000 0.000000 0.000001 -0.000000 0.000000 0.000001 -0.000000 
-9.461914 62.324478 -0.680451 6.217554 10.909869 1.289571 -0.000000 0.000000 -0.000000 -50.520676 -9.399005 -1.129104 38.340673 -19.295167 -3.542775 2.295968 -1.737903 -5.356514 0.000000 -0.000000 -0.000000 0.000002 0.000000 -0.000000 -10.537628 -7.792029 1.509923 58.870077 -17.033515 -9.941374 -35.589169 -0.453592 16.210431 -0.000000 0.000000 -0.000000 0.000000 -0.000000 -0.000000 6.031390 -0.549616 -2.307973 -1.909139 -0.850889 -5.060079 -1.886657 -0.850853 -5.059591 -22.734691 -9.234634 4.477810 7.334331 -6.985444 -9.210167 -0.000001 0.000000 -0.000000 -0.000001 0.000000 -0.000000 -0.000001 0.000000 0.000000 -0.000001 0.000000 -0.000000 0.000000 -0.000000 -0.000000 -0.000001 0.000000 -0.000000 0.000000 -0.000000 -0.000000 -0.000001 0.000000 -0.000000 -0.000001 0.000000 -0.000000 -7.298174 -17.415329 -8.034955 -14.064193 -8.494676 -2.706174 -146.039881 -74.946218 -142.967812 -7.310166 -8.894771 29.046103 9.845142 11.305876 10.066947 5.274789 21.279687 -8.727070 -0.000001 0.000001 0.000001 9.307010 -7.102828 -25.959346 -0.483379 0.618105 -82.175133 -0.000000 0.000003 0.000002 5.043950 -4.417625 -36.552990 0.885454 0.477952 -78.862607 0.000003 -0.000003 0.000002 1.619656 3.295785 -45.321293 0.697557 0.176605 -77.542940 -0.000003 0.000003 -0.000001 -7.487077 8.438618 -49.745798 0.634742 0.107088 -91.137372 0.000005 0.000001 0.000003 0.000002 -0.000001 -0.000001 -7.063744 17.810820 3.824990 -0.653491 7.660492 19.416998 -39.660081 109.687907 33.038691 -8.721401 6.408962 -33.982582 -4.074338 5.658246 -0.221944 12.481062 -41.041084 2.813765 -0.000001 0.000000 -0.000003 14.404492 5.404218 33.012572 -0.579298 -0.409301 75.800422 -0.000003 -0.000001 0.000002 5.435012 5.123426 47.951620 0.767619 -0.537025 77.829145 -0.000001 -0.000001 0.000001 -0.931458 -2.953495 60.312995 0.576735 -0.262055 80.137353 -0.000003 -0.000001 -0.000001 -7.802663 -11.934111 67.045355 0.583391 -0.127776 98.504244 -0.000001 -0.000003 -0.000005 -0.000000 -0.000003 0.000000 -0.000000 -0.000000 -0.000001 -0.000000 -0.000000 -0.000001 -0.000000 -0.000000 -0.000002 -0.000000 -0.000000 -0.000002 -0.000000 -0.000000 -0.000001 -0.000000 -0.000000 -0.000001 -0.000000 -0.000000 -0.000002 -0.000000 -0.000000 -0.000002 -0.000000 -0.000000 -0.000001 -0.000000 -0.000000 -0.000001 -0.000000 0.000000 -0.000000 -0.000000 0.000000 -0.000000 -0.000000 0.000000 -0.000000 
